<svg xmlns="http://www.w3.org/2000/svg" width="24" height="24" fill="none">
  <path
    fill="#231f20"
    fill-rule="evenodd"
    d="M22.389 6.01a12.02 12.02 0 0 0-4.379-4.378A11.525 11.525 0 0 0 12 0C9.892-.015 7.82.55 6.01 1.632a12.02 12.02 0 0 0-4.378 4.379A11.504 11.504 0 0 0 0 12a11.525 11.525 0 0 0 1.632 6.01 12.02 12.02 0 0 0 4.379 4.378 11.69 11.69 0 0 0 5.99 1.61 11.71 11.71 0 0 0 6.01-1.61 12.018 12.018 0 0 0 4.378-4.379 11.71 11.71 0 0 0 1.61-6.01 11.69 11.69 0 0 0-1.61-5.99ZM5.412 10.45h8.86l-3.614-3.386a1.177 1.177 0 0 1-.33-.868c-.051-.334.047-.673.268-.93l.537-.515a1.157 1.157 0 0 1 1.652 0l6.382 6.423c.223.217.35.514.35.826.005.312-.123.612-.35.826l-6.382 6.444c-.463.44-1.19.44-1.652 0l-.537-.537a1.26 1.26 0 0 1 0-1.694l3.676-3.49h-8.86a1.094 1.094 0 0 1-.806-.33 1.115 1.115 0 0 1-.351-.827v-.784a1.198 1.198 0 0 1 1.157-1.157Z"
    clip-rule="evenodd"
  />
</svg>
