<svg width="192" height="96" viewBox="0 0 192 96" fill="none" xmlns="http://www.w3.org/2000/svg">
  <g clip-path="url(#clip0_51_187)">
  <rect width="192" height="96" fill="white" />
  <path
      d="M63.69 87.7777V82.5462C63.7208 82.1061 63.6574 81.6646 63.504 81.251C63.3506 80.8374 63.1108 80.4613 62.8005 80.1477C62.4902 79.8341 62.1167 79.5903 61.7047 79.4326C61.2928 79.2748 60.8519 79.2067 60.4116 79.2329C59.8354 79.1954 59.2598 79.3132 58.7447 79.5739C58.2296 79.8346 57.7938 80.2287 57.4828 80.7151C57.1993 80.2431 56.7937 79.8563 56.3088 79.5954C55.8239 79.3346 55.2776 79.2093 54.7275 79.2329C54.2481 79.2089 53.7708 79.3105 53.3427 79.5276C52.9147 79.7448 52.5508 80.07 52.287 80.471V79.443H50.4734V87.7786H52.3044V83.1574C52.2648 82.8722 52.2889 82.5818 52.3749 82.3071C52.4608 82.0323 52.6066 81.78 52.8016 81.5683C52.9967 81.3565 53.2362 81.1906 53.503 81.0825C53.7698 80.9743 54.0573 80.9266 54.3447 80.9427C55.548 80.9427 56.1583 81.7274 56.1583 83.14V87.7786H57.9894V83.1574C57.9527 82.8728 57.9787 82.5837 58.0657 82.3102C58.1527 82.0368 58.2984 81.7857 58.4928 81.5746C58.6872 81.3636 58.9254 81.1976 59.1908 81.0884C59.4561 80.9793 59.7422 80.9295 60.0288 80.9427C61.2669 80.9427 61.8598 81.7274 61.8598 83.14V87.7786L63.69 87.7777ZM90.7859 79.4421H87.8213V76.9144H85.9903V79.443H84.2996V81.0997H85.9912V84.9004C85.9912 86.836 86.741 87.987 88.8859 87.987C89.687 87.9893 90.4724 87.7656 91.1521 87.3417L90.6289 85.7897C90.1426 86.0799 89.5906 86.2419 89.0246 86.2606C88.1178 86.2606 87.8213 85.7025 87.8213 84.8655V81.0997H90.7859V79.4421ZM106.252 79.2329C105.81 79.2199 105.372 79.3264 104.986 79.5412C104.599 79.7561 104.277 80.0712 104.055 80.4536V79.443H102.259V87.7786H104.072V83.1051C104.072 81.7274 104.665 80.9601 105.851 80.9601C106.239 80.9548 106.624 81.0259 106.984 81.1694L107.542 79.4604C107.128 79.3122 106.692 79.2355 106.252 79.2337V79.2329ZM82.8697 80.1048C81.8431 79.4943 80.6628 79.1917 79.4692 79.2329C77.36 79.2329 75.9998 80.2443 75.9998 81.9009C75.9998 83.2611 77.0112 84.0982 78.8771 84.3598L79.7316 84.4818C80.7256 84.6213 81.1965 84.8829 81.1965 85.3538C81.1965 85.999 80.5338 86.3652 79.2957 86.3652C78.2998 86.3939 77.3232 86.0868 76.523 85.4933L75.6685 86.9058C76.7248 87.6436 77.9902 88.0226 79.2782 87.987C81.6847 87.987 83.0798 86.8535 83.0798 85.2666C83.0798 83.8017 81.9812 83.0344 80.1676 82.7729L79.3131 82.6508C78.5284 82.5462 77.9006 82.3892 77.9006 81.8312C77.9006 81.2209 78.4935 80.8546 79.4875 80.8546C80.4003 80.8684 81.2945 81.1145 82.0858 81.5696L82.8697 80.1048ZM131.447 79.2329C131.005 79.2199 130.567 79.3264 130.181 79.5412C129.794 79.7561 129.472 80.0712 129.25 80.4536V79.443H127.454V87.7786H129.267V83.1051C129.267 81.7274 129.86 80.9601 131.046 80.9601C131.434 80.9548 131.819 81.0259 132.18 81.1694L132.738 79.4604C132.323 79.3122 131.887 79.2356 131.447 79.2337V79.2329ZM108.082 83.6099C108.058 84.1971 108.157 84.7829 108.373 85.3295C108.589 85.8761 108.917 86.3714 109.336 86.7837C109.755 87.196 110.255 87.516 110.805 87.7233C111.355 87.9305 111.942 88.0203 112.529 87.987C113.618 88.0418 114.688 87.6872 115.528 86.993L114.656 85.5281C114.029 86.0061 113.265 86.2691 112.477 86.278C111.795 86.239 111.155 85.941 110.686 85.4449C110.218 84.9488 109.957 84.2923 109.957 83.6099C109.957 82.9276 110.218 82.271 110.686 81.775C111.155 81.2789 111.795 80.9808 112.477 80.9418C113.265 80.9507 114.03 81.2137 114.656 81.6917L115.528 80.2269C114.688 79.5327 113.618 79.1781 112.529 79.2329C111.942 79.1995 111.355 79.2893 110.805 79.4966C110.255 79.7038 109.755 80.0239 109.336 80.4361C108.917 80.8484 108.589 81.3438 108.373 81.8904C108.157 82.437 108.058 83.0227 108.082 83.6099V83.6099ZM125.066 83.6099V79.4421H123.252V80.4536C122.942 80.0546 122.542 79.7356 122.084 79.5232C121.626 79.3108 121.123 79.2113 120.619 79.2329C119.492 79.2832 118.427 79.7663 117.648 80.5817C116.868 81.397 116.433 82.4817 116.433 83.6099C116.433 84.7381 116.868 85.8228 117.648 86.6382C118.427 87.4535 119.492 87.9367 120.619 87.987C121.123 88.0086 121.626 87.909 122.084 87.6966C122.542 87.4843 122.942 87.1652 123.252 86.7663V87.7777H125.066V83.6099ZM118.317 83.6099C118.345 83.1182 118.517 82.6455 118.81 82.2502C119.104 81.8548 119.507 81.554 119.969 81.3848C120.432 81.2157 120.934 81.1856 121.413 81.2983C121.893 81.4109 122.329 81.6615 122.668 82.0189C123.006 82.3764 123.233 82.8252 123.32 83.31C123.407 83.7948 123.35 84.2944 123.156 84.7472C122.962 85.2 122.64 85.5862 122.23 85.8582C121.819 86.1303 121.338 86.2762 120.845 86.278C120.5 86.2828 120.157 86.2159 119.839 86.0817C119.521 85.9474 119.234 85.7487 118.997 85.498C118.759 85.2473 118.576 84.9501 118.459 84.6251C118.342 84.3002 118.294 83.9545 118.317 83.6099V83.6099ZM96.4351 79.2329C95.3031 79.291 94.2378 79.7857 93.4629 80.6129C92.688 81.44 92.2639 82.5354 92.2797 83.6687C92.2955 84.802 92.75 85.8851 93.5476 86.6904C94.3453 87.4956 95.424 87.9604 96.5571 87.987C97.8013 88.0307 99.018 87.6148 99.9751 86.8186L99.0857 85.4758C98.3971 86.0278 97.5442 86.3346 96.6618 86.3478C96.0625 86.3982 95.4671 86.2134 95.0017 85.8326C94.5363 85.4518 94.2373 84.9048 94.1681 84.3075H100.359C100.376 84.0808 100.394 83.8541 100.394 83.6099C100.376 81.0116 98.7718 79.2329 96.4351 79.2329V79.2329ZM96.4002 80.8546C96.948 80.8439 97.4777 81.0508 97.8733 81.43C98.2688 81.8092 98.4979 82.3297 98.5102 82.8775H94.1855C94.2171 82.3178 94.4665 81.7927 94.8805 81.4146C95.2944 81.0365 95.8399 80.8355 96.4002 80.8546V80.8546ZM141.891 83.6099V76.0957H140.077V80.4544C139.768 80.0555 139.367 79.7364 138.909 79.5241C138.451 79.3117 137.949 79.2121 137.444 79.2337C136.319 79.2864 135.257 79.7705 134.479 80.5856C133.702 81.4006 133.268 82.4838 133.268 83.6104C133.268 84.7369 133.702 85.8202 134.479 86.6352C135.257 87.4502 136.319 87.9343 137.444 87.987C137.949 88.0086 138.451 87.909 138.909 87.6966C139.367 87.4843 139.768 87.1652 140.077 86.7663V87.7777H141.891V83.6099ZM144.914 86.5692C145.027 86.5686 145.138 86.5909 145.242 86.6346C145.342 86.6764 145.432 86.7367 145.509 86.8125C145.586 86.8878 145.648 86.9772 145.691 87.0758C145.734 87.1773 145.757 87.2866 145.757 87.3971C145.757 87.5076 145.734 87.6169 145.691 87.7184C145.648 87.817 145.586 87.9064 145.509 87.9817C145.432 88.0574 145.341 88.1181 145.242 88.1605C145.138 88.2049 145.027 88.2274 144.914 88.2267C144.748 88.2284 144.585 88.1811 144.446 88.0907C144.307 88.0003 144.197 87.8708 144.131 87.7184C144.087 87.6169 144.065 87.5076 144.065 87.3971C144.065 87.2867 144.087 87.1773 144.131 87.0758C144.173 86.9774 144.234 86.888 144.311 86.8125C144.388 86.7361 144.479 86.6757 144.58 86.6346C144.686 86.5907 144.799 86.5685 144.914 86.5692V86.5692ZM144.914 88.0428C145 88.0437 145.085 88.0268 145.163 87.9931C145.239 87.96 145.308 87.913 145.366 87.8544C145.487 87.7328 145.554 87.5686 145.554 87.3975C145.554 87.2265 145.487 87.0623 145.366 86.9407C145.308 86.8824 145.239 86.836 145.163 86.8038C145.084 86.7703 145 86.7534 144.914 86.7541C144.827 86.7534 144.74 86.7703 144.659 86.8038C144.582 86.8354 144.512 86.8819 144.453 86.9407C144.332 87.0622 144.265 87.2264 144.265 87.3975C144.265 87.5687 144.332 87.7329 144.453 87.8544C144.512 87.9135 144.582 87.9606 144.659 87.9931C144.74 88.0271 144.827 88.0443 144.914 88.0436V88.0428ZM144.963 87.0104C145.044 87.0049 145.125 87.0281 145.191 87.0758C145.218 87.0975 145.239 87.125 145.252 87.1562C145.266 87.1874 145.273 87.2213 145.271 87.2554C145.272 87.2846 145.267 87.3137 145.256 87.3407C145.245 87.3678 145.228 87.3922 145.207 87.4124C145.157 87.4573 145.093 87.4843 145.026 87.4891L145.278 87.7795H145.08L144.847 87.4917H144.772V87.7795H144.607V87.0104H144.963ZM144.771 87.1543V87.3592H144.961C144.997 87.3607 145.033 87.3516 145.064 87.333C145.077 87.3246 145.087 87.3129 145.093 87.2993C145.1 87.2857 145.103 87.2706 145.102 87.2554C145.103 87.2405 145.1 87.2257 145.093 87.2124C145.086 87.1991 145.076 87.1878 145.064 87.1796C145.033 87.1614 144.997 87.1526 144.961 87.1543H144.771ZM135.143 83.6099C135.171 83.1182 135.343 82.6455 135.637 82.2502C135.93 81.8548 136.333 81.554 136.796 81.3848C137.258 81.2157 137.76 81.1856 138.24 81.2983C138.719 81.4109 139.155 81.6615 139.494 82.0189C139.833 82.3764 140.059 82.8252 140.146 83.31C140.233 83.7948 140.176 84.2944 139.982 84.7472C139.789 85.2 139.467 85.5862 139.056 85.8582C138.645 86.1303 138.164 86.2762 137.672 86.278C137.326 86.2828 136.984 86.2159 136.666 86.0817C136.347 85.9474 136.06 85.7487 135.823 85.498C135.585 85.2473 135.402 84.9501 135.285 84.6251C135.168 84.3002 135.12 83.9545 135.143 83.6099V83.6099ZM73.9081 83.6099V79.4421H72.0945V80.4536C71.7849 80.0546 71.3843 79.7356 70.9262 79.5232C70.4681 79.3108 69.9657 79.2113 69.4613 79.2329C68.3342 79.2832 67.27 79.7663 66.4902 80.5817C65.7104 81.397 65.2752 82.4817 65.2752 83.6099C65.2752 84.7381 65.7104 85.8228 66.4902 86.6382C67.27 87.4535 68.3342 87.9367 69.4613 87.987C69.9657 88.0086 70.4681 87.909 70.9262 87.6966C71.3843 87.4843 71.7849 87.1652 72.0945 86.7663V87.7777H73.9081V83.6099ZM67.1594 83.6099C67.1876 83.1182 67.3592 82.6455 67.6528 82.2502C67.9465 81.8548 68.3494 81.554 68.8119 81.3848C69.2745 81.2157 69.7764 81.1856 70.2559 81.2983C70.7353 81.4109 71.1713 81.6615 71.5101 82.0189C71.8489 82.3764 72.0756 82.8252 72.1624 83.31C72.2492 83.7948 72.1922 84.2944 71.9985 84.7472C71.8048 85.2 71.4828 85.5862 71.0722 85.8582C70.6617 86.1303 70.1805 86.2762 69.6879 86.278C69.3426 86.2828 69 86.2159 68.6818 86.0817C68.3636 85.9474 68.0766 85.7487 67.8391 85.498C67.6015 85.2473 67.4184 84.9501 67.3015 84.6251C67.1845 84.3002 67.1361 83.9545 67.1594 83.6099Z"
      fill="#231F20"
    />
  <path d="M82.2673 15.9269H109.733V65.283H82.2673V15.9269Z" fill="#FF5F00" />
  <path
      d="M84.0123 40.6049C84.008 35.8516 85.0852 31.1596 87.1623 26.8841C89.2394 22.6086 92.262 18.8616 96.0012 15.9269C91.3707 12.2871 85.8095 10.0236 79.9533 9.39501C74.0972 8.76642 68.1823 9.79815 62.8848 12.3723C57.5872 14.9464 53.1208 18.9591 49.996 23.9516C46.8712 28.9442 45.2141 34.7151 45.2141 40.6049C45.2141 46.4948 46.8712 52.2657 49.996 57.2583C53.1208 62.2508 57.5872 66.2635 62.8848 68.8376C68.1823 71.4117 74.0972 72.4435 79.9533 71.8149C85.8095 71.1863 91.3707 68.9228 96.0012 65.283C92.262 62.3483 89.2394 58.6013 87.1623 54.3258C85.0852 50.0503 84.008 45.3583 84.0123 40.6049V40.6049Z"
      fill="#EB001B"
    />
  <path
      d="M146.786 40.605C146.786 46.4946 145.129 52.2654 142.005 57.2578C138.88 62.2502 134.414 66.2628 129.117 68.8369C123.819 71.411 117.905 72.4428 112.049 71.8143C106.193 71.1859 100.632 68.9225 96.0012 65.283C99.7372 62.3453 102.757 58.5978 104.834 54.3229C106.911 50.0481 107.99 45.3575 107.99 40.605C107.99 35.8524 106.911 31.1618 104.834 26.887C102.757 22.6121 99.7372 18.8646 96.0012 15.9269C100.632 12.2874 106.193 10.024 112.049 9.39556C117.905 8.76711 123.819 9.79891 129.117 12.373C134.414 14.9471 138.88 18.9597 142.005 23.9521C145.129 28.9445 146.786 34.7153 146.786 40.605V40.605ZM143.791 60.0549V59.0435H144.198V58.8386H143.161V59.0444H143.568V60.0549H143.791ZM145.805 60.0549V58.8369H145.487L145.121 59.6739L144.756 58.8369H144.437V60.0549H144.662V59.1359L145.005 59.9285H145.238L145.581 59.1342V60.0549H145.805Z"
      fill="#F79E1B"
    />
  </g>
  <defs>
  <clipPath id="clip0_51_187">
  <rect width="192" height="96" fill="white" />
  </clipPath>
  </defs>
</svg>
