<svg width="192" height="96" viewBox="0 0 192 96" fill="none" xmlns="http://www.w3.org/2000/svg">
  <rect width="192" height="96" fill="white" />
  <path
    d="M148.994 18.2059C162.716 18.2059 173.88 29.3195 173.88 42.9808C173.88 56.6395 162.716 67.7531 148.994 67.7531H45.2654C31.5413 67.7531 20.379 56.6395 20.379 42.9808C20.379 29.3195 31.5413 18.2059 45.2654 18.2059H148.994V18.2059Z"
    fill="white"
  />
  <path
    fill-rule="evenodd"
    clip-rule="evenodd"
    d="M148.994 69.863H45.2654C30.3722 69.863 18.2594 57.8032 18.2594 42.9808C18.2594 28.1558 30.3722 16.096 45.2654 16.096H148.994C163.885 16.096 176 28.1558 176 42.9808C176 57.8032 163.885 69.863 148.994 69.863ZM45.2654 18.2059C31.5413 18.2059 20.379 29.3195 20.379 42.9808C20.379 56.6395 31.5413 67.7531 45.2654 67.7531H148.994C162.716 67.7531 173.88 56.6395 173.88 42.9808C173.88 29.3195 162.716 18.2059 148.994 18.2059H45.2654V18.2059Z"
    fill="#CECFD1"
  />
  <path
    fill-rule="evenodd"
    clip-rule="evenodd"
    d="M143.845 35.1964C143.845 39.2062 140.582 42.4545 136.551 42.4545C132.525 42.4545 129.259 39.2062 129.259 35.1964C129.259 31.1866 132.525 27.9357 136.551 27.9357C140.582 27.9357 143.845 31.1866 143.845 35.1964V35.1964ZM140.295 35.1964C140.295 33.1396 138.617 31.4724 136.551 31.4724C134.487 31.4724 132.81 33.1396 132.81 35.1964C132.81 37.2532 134.487 38.9203 136.551 38.9203C138.617 38.9203 140.295 37.2532 140.295 35.1964V35.1964ZM110.401 35.1964C110.401 39.2062 107.136 42.4545 103.105 42.4545C99.0791 42.4545 95.8132 39.2062 95.8132 35.1964C95.8132 31.1866 99.0791 27.9357 103.105 27.9357C107.136 27.9357 110.401 31.1866 110.401 35.1964V35.1964ZM106.848 35.1964C106.848 33.1396 105.174 31.4724 103.105 31.4724C101.041 31.4724 99.3662 33.1396 99.3662 35.1964C99.3662 37.2532 101.041 38.9203 103.105 38.9203C105.174 38.9203 106.848 37.2532 106.848 35.1964V35.1964Z"
    fill="#2C2E35"
  />
  <path
    d="M129.275 41.9536C128.626 42.1661 127.546 42.4621 126.136 42.4621C123.401 42.4621 121.724 41.2503 121.724 37.9919V31.0677H119.474C117.324 31.1258 115.512 33.0789 115.512 36.1324V42.194H111.4V28.2646H113.807L114.973 31.2549C115.896 29.4359 117.34 28.2747 119.251 28.2671H119.439V28.2646H121.777L122.481 24.3028H125.836V28.2646H128.82V31.0677H125.836V37.7743C125.836 38.9608 126.108 39.3884 127.356 39.3884C127.623 39.3884 128.329 39.2568 128.789 39.1227L129.275 41.9536V41.9536ZM148.826 32.6716V42.194H144.828V28.2646H147.256L148.069 30.3922"
    fill="#2C2E35"
  />
  <path
    d="M148.051 30.4048C149.266 29.0008 150.928 27.9382 152.875 27.9382C156.207 27.9382 157.577 30.5819 157.577 33.0308V42.194H153.459V33.1497C153.459 31.9556 152.461 31.308 151.378 31.308C150.227 31.308 149.485 31.9658 148.834 32.6665L148.051 30.4048ZM79.7738 23.2226H84.3561L90.6489 35.1508V23.2226H94.4433V42.1965H90.2931L83.5708 29.0792V42.1965H79.7738V23.2226Z"
    fill="#2C2E35"
  />
  <path
    d="M169.717 16.0985V16.7765H168.721V20.1184H167.941V16.7765H166.96V16.0985H169.717ZM170.279 20.1184V16.0985H171.331L172.033 18.7321L172.744 16.0985H173.809V20.1184H173.169V16.9738H173.148L172.333 20.1184H171.763L170.937 16.9738H170.92V20.1184H170.279V20.1184ZM78.6301 59.0099L79.5832 57.5376C80.3558 58.1043 81.5147 58.633 82.9278 58.633C84.3027 58.633 85.1516 58.0132 85.1516 56.938C85.1516 55.6984 84.0791 55.372 82.3178 54.7598C80.737 54.2083 79.1842 53.4139 79.1842 51.1876C79.1842 49.1005 80.8387 47.962 83.0625 47.962C84.5416 47.962 85.6319 48.253 86.5088 48.7665L85.7489 50.3325C85.0118 49.953 84.1325 49.695 83.0981 49.695C81.8578 49.695 81.1157 50.1605 81.1157 51.137C81.1157 52.2881 81.9773 52.579 83.5988 53.1103C85.2889 53.6542 87.1467 54.4334 87.1467 56.9026C87.1467 58.9897 85.6472 60.3659 82.9583 60.3659C80.9607 60.3659 79.4942 59.6804 78.6301 59.0099V59.0099ZM90.7556 48.1518H97.9608V49.819H92.8066V53.1103H96.8755V54.7395H92.8066V58.5444H98.2734V60.2091H90.7556V48.1518V48.1518ZM101.204 54.1906C101.204 50.6715 102.896 47.9646 106.274 47.9646C107.786 47.9646 108.983 48.4427 109.824 49.4192L108.63 50.7955C107.906 50.0897 107.293 49.7456 106.307 49.7456C104.325 49.7456 103.41 51.3596 103.41 54.3449C103.41 57.1454 104.375 58.5647 106.325 58.5647C107.41 58.5647 108.17 57.998 108.838 57.2947L110.043 58.633C109.166 59.6652 108.068 60.3659 106.307 60.3659C102.825 60.3659 101.204 57.7248 101.204 54.1906V54.1906ZM113.383 55.5946V48.1518H115.449V55.926C115.449 57.5831 115.861 58.6684 117.619 58.6684C119.36 58.6684 119.792 57.5831 119.792 55.926V48.1518H121.876V55.5946C121.876 58.5824 120.722 60.3659 117.601 60.3659C114.534 60.3659 113.383 58.5824 113.383 55.5946Z"
    fill="#B0B1B3"
  />
  <path
    fill-rule="evenodd"
    clip-rule="evenodd"
    d="M134.518 60.2116H132.276L129.951 55.0963H128.037V60.2116H125.986V48.1518H129.938C132.383 48.1518 134.294 49.0271 134.294 51.6683C134.294 53.4721 133.209 54.3752 131.999 54.8053L134.518 60.2116V60.2116ZM129.864 53.5227C131.399 53.5227 132.19 53.0243 132.19 51.6329C132.19 50.2946 131.384 49.8164 129.984 49.8164H128.037V53.5227H129.864V53.5227Z"
    fill="#B0B1B3"
  />
  <path
    d="M138.025 48.1518H145.228V49.819H140.073V53.1103H144.137V54.7395H140.073V58.5445H145.535V60.2091H138.025V48.1518Z"
    fill="#B0B1B3"
  />
  <path
    fill-rule="evenodd"
    clip-rule="evenodd"
    d="M148.999 48.1518H152.024C155.97 48.1518 157.869 50.2794 157.869 54.1374C157.869 58.0663 155.937 60.2091 152.128 60.2091H148.999V48.1518ZM151.904 58.5445C154.733 58.5445 155.699 57.2441 155.699 54.1374C155.699 51.4103 154.939 49.8164 152.158 49.8164H151.058V58.5445H151.904Z"
    fill="#B0B1B3"
  />
  <path
    fill-rule="evenodd"
    clip-rule="evenodd"
    d="M45.1408 71.9856C29.0735 71.9856 16 58.972 16 42.9808C16 26.987 29.0735 13.9759 45.1408 13.9759C61.2056 13.9759 74.2765 26.987 74.2791 42.9808C74.2765 58.972 61.2056 71.9856 45.1408 71.9856ZM45.1408 23.1492C39.8215 23.1492 34.8198 25.2136 31.0533 28.9578C27.2893 32.707 25.218 37.6858 25.218 42.9808C25.218 48.2732 27.2893 53.252 31.0533 57.0012C34.8173 60.7454 39.8189 62.8073 45.1408 62.8098C50.4576 62.8073 55.4618 60.7454 59.2283 56.9987C62.9847 53.252 65.0585 48.2732 65.0611 42.9808C65.0585 37.6858 62.9847 32.707 59.2258 28.9578C55.4593 25.2136 50.4551 23.1492 45.1408 23.1492V23.1492Z"
    fill="#FFBE32"
  />
  <path
    d="M79.1537 11.7699H76.8816V9.50821H79.1537V11.7699V11.7699ZM79.1537 7.26675H76.8816V5H79.1537V7.26675V7.26675ZM72.6094 13.9608H70.4897V11.7547H72.6094V13.9608Z"
    fill="#FFBE32"
  />
  <path
    d="M68.4235 18.2008H66.2836V16.0909H68.4235V18.2008ZM74.9882 16.0909H72.6094V13.9633H74.9882V16.0909Z"
    fill="#2C2E35"
  />
  <path
    d="M64.1512 14.067H66.2835V16.0909H64.1512V14.067V14.067ZM72.6093 18.2008H70.4897V16.0909H72.6093V18.2008ZM76.8816 9.50821H74.6324V7.26675H76.8816V9.50821ZM74.6324 11.7547H70.4897V9.50821H74.6324V11.7547ZM68.4235 11.7547H70.4872V16.0909H68.4235V11.7547ZM70.4872 18.2008V22.6837H68.6573V24.4597H66.7537V27.0427H65.0662L65.0687 29.1804H62.9618V27.0199H60.8066V29.1804H62.9618V31.5584H60.8295V34.0251H59.0454V36.1527H57.3502V38.513C54.1708 43.0668 51.4869 48.6122 49.6367 53.5454C48.765 55.883 44.4292 55.5263 43.4634 53.2317C41.6336 48.8829 39.7401 43.4311 33.727 36.8484C31.1092 34.1591 33.0077 32.449 34.5834 32.922C37.5062 33.8707 41.2193 36.4967 45.9999 43.1174C47.324 39.8286 51.7106 31.7532 53.4617 29.1627H55.0196V27.0427H56.4352V24.9328H58.5726V21.6262H60.8295V23.7336H62.9542V21.6262H60.8295V19.7339H62.7331V18.2008H66.2835V20.3309H68.4235V18.2008H70.4872V18.2008Z"
    fill="#2C2E35"
  />
  <path
    fill-rule="evenodd"
    clip-rule="evenodd"
    d="M27.3173 81.9305H28.9108V83.0866C29.4267 82.3631 30.151 81.7863 31.2718 81.7863C32.9187 81.7863 34.5148 83.0866 34.5148 85.3812V85.4065C34.5148 87.7036 32.9314 89.0039 31.2718 89.0039C30.1256 89.0039 29.3987 88.4271 28.9108 87.782V90.9595H27.3173V81.9305V81.9305ZM32.8933 85.4065V85.3812C32.8933 84.0429 31.9835 83.1625 30.9033 83.1625C29.8206 83.1625 28.8727 84.0555 28.8727 85.3812V85.4065C28.8727 86.7448 29.8206 87.6277 30.9033 87.6277C31.9962 87.6277 32.8933 86.7726 32.8933 85.4065ZM35.8135 85.4343V85.4065C35.8135 83.4256 37.3968 81.7863 39.5342 81.7863C41.6691 81.7863 43.2372 83.4003 43.2372 85.3812V85.4065C43.2372 87.3772 41.6564 89.0166 39.5063 89.0166C37.3841 89.0166 35.8135 87.4025 35.8135 85.4343V85.4343ZM41.6437 85.4343V85.4065C41.6437 84.1871 40.7592 83.1777 39.5063 83.1777C38.2279 83.1777 37.4095 84.1744 37.4095 85.3812V85.4065C37.4095 86.6158 38.294 87.6403 39.5342 87.6403C40.8253 87.6403 41.6437 86.6284 41.6437 85.4343V85.4343Z"
    fill="#B0B1B3"
  />
  <path
    d="M44.0073 81.9305H45.644L47.0393 86.6815L48.582 81.9026H49.9417L51.4971 86.6815L52.9204 81.9305H54.5164L52.2367 88.9129H50.8109L49.2555 84.1744L47.6849 88.9129H46.2642L44.0073 81.9305V81.9305Z"
    fill="#B0B1B3"
  />
  <path
    fill-rule="evenodd"
    clip-rule="evenodd"
    d="M55.3347 85.4217V85.3938C55.3347 83.4129 56.7478 81.7863 58.7378 81.7863C60.9514 81.7863 62.0722 83.5167 62.0722 85.5127C62.0722 85.6569 62.0595 85.8011 62.0468 85.9605H56.9308C57.1036 87.0863 57.9067 87.7188 58.936 87.7188C59.7137 87.7188 60.2678 87.4304 60.8193 86.8915L61.7571 87.7188C61.0963 88.5056 60.1864 89.0166 58.9081 89.0166C56.8927 89.0166 55.3347 87.5594 55.3347 85.4217V85.4217ZM60.4914 84.9081C60.3847 83.886 59.7798 83.0866 58.7251 83.0866C57.7491 83.0866 57.0629 83.8329 56.9181 84.9081H60.4914Z"
    fill="#B0B1B3"
  />
  <path
    d="M63.7344 81.9305H65.3304V83.4914C65.765 82.4541 66.5681 81.7458 67.7957 81.7989V83.4787H67.7042C66.3064 83.4787 65.3304 84.3844 65.3304 86.2211V88.8597H63.7344V81.9305V81.9305Z"
    fill="#B0B1B3"
  />
  <path
    fill-rule="evenodd"
    clip-rule="evenodd"
    d="M68.7208 85.4217V85.3938C68.7208 83.413 70.1339 81.7863 72.1239 81.7863C74.3401 81.7863 75.4583 83.5167 75.4583 85.5127C75.4583 85.6569 75.4456 85.8011 75.4329 85.9605H70.3169C70.4897 87.0863 71.2928 87.7188 72.3221 87.7188C73.0998 87.7188 73.6539 87.4304 74.2079 86.8915L75.1432 87.7188C74.4824 88.5056 73.5751 89.0166 72.2967 89.0166C70.2788 89.0166 68.7208 87.5594 68.7208 85.4217ZM73.8775 84.9081C73.7708 83.886 73.1659 83.0866 72.1112 83.0866C71.1352 83.0866 70.449 83.8329 70.3042 84.9081H73.8775ZM76.7545 85.4065V85.3812C76.7545 83.0866 78.3226 81.7863 79.9847 81.7863C81.131 81.7863 81.8553 82.3631 82.356 83.0056V79.2792H83.952V88.8597H82.356V87.7036C81.8426 88.4271 81.1183 89.0039 79.9847 89.0039C78.348 89.0039 76.7545 87.7036 76.7545 85.4065V85.4065ZM82.3839 85.4065V85.3812C82.3839 84.0429 81.4334 83.1625 80.366 83.1625C79.2731 83.1625 78.3633 84.0049 78.3633 85.3812V85.4065C78.3633 86.7448 79.2858 87.6277 80.366 87.6277C81.4334 87.6277 82.3839 86.7321 82.3839 85.4065ZM91.4876 87.782V88.8597H89.894V79.2792H91.4876V83.0866C92.0035 82.3631 92.7278 81.7863 93.8486 81.7863C95.4955 81.7863 97.0916 83.0866 97.0916 85.3812V85.4065C97.0916 87.7036 95.5082 89.0039 93.8486 89.0039C92.7024 89.0039 91.9755 88.4271 91.4876 87.782V87.782ZM95.4701 85.4065V85.3812C95.4701 84.0429 94.5602 83.1625 93.4801 83.1625C92.3974 83.1625 91.4494 84.0555 91.4494 85.3812V85.4065C91.4494 86.7448 92.3974 87.6277 93.4801 87.6277C94.5729 87.6277 95.4701 86.7726 95.4701 85.4065Z"
    fill="#B0B1B3"
  />
  <path
    d="M98.1793 90.5775L98.7181 89.3986C99.0079 89.5554 99.3255 89.6617 99.6534 89.6617C100.103 89.6617 100.38 89.4618 100.642 88.8597L97.7422 81.9305H99.4425L101.422 87.0737L103.229 81.9305H104.889L102.121 89.0571C101.567 90.4738 100.947 91 99.8262 91C99.1553 91 98.6673 90.8406 98.1793 90.5775Z"
    fill="#B0B1B3"
  />
  <path
    d="M109.603 79.6713H111.398L114.181 86.7321L116.948 79.6713H118.702L114.864 88.9255H113.441L109.603 79.6713V79.6713Z"
    fill="#AD1847"
  />
  <path
    fill-rule="evenodd"
    clip-rule="evenodd"
    d="M119.027 85.4217V85.3938C119.027 83.4129 120.44 81.7863 122.43 81.7863C124.646 81.7863 125.765 83.5167 125.765 85.5127C125.765 85.6569 125.752 85.8011 125.739 85.9605H120.623C120.796 87.0863 121.599 87.7188 122.629 87.7188C123.406 87.7188 123.96 87.4304 124.512 86.8915L125.45 87.7188C124.789 88.5056 123.881 89.0166 122.601 89.0166C120.585 89.0166 119.027 87.5594 119.027 85.4217ZM124.184 84.9081C124.077 83.886 123.472 83.0866 122.418 83.0866C121.442 83.0866 120.755 83.8329 120.611 84.9081H124.184Z"
    fill="#AD1847"
  />
  <path
    d="M127.427 81.9305H129.023V83.4914C129.458 82.4541 130.263 81.7458 131.488 81.7989V83.4787H131.397C129.999 83.4787 129.023 84.3844 129.023 86.2211V88.8597H127.427V81.9305ZM132.792 79.3576H134.505V80.8654H132.792V79.3576ZM132.858 81.9305H134.454V88.8597H132.858V81.9305ZM136.109 87.5214L137.085 86.3653C137.969 87.1268 138.851 87.5594 139.997 87.5594C141.001 87.5594 141.634 87.1015 141.634 86.4058V86.378C141.634 85.7227 141.265 85.3685 139.55 84.9764C137.585 84.5033 136.477 83.9265 136.477 82.2315V82.2062C136.477 80.6301 137.796 79.5423 139.629 79.5423C140.973 79.5423 142.043 79.947 142.978 80.6959L142.109 81.9153C141.278 81.298 140.447 80.9716 139.603 80.9716C138.653 80.9716 138.101 81.4574 138.101 82.062V82.0873C138.101 82.7957 138.521 83.1119 140.289 83.5319C142.241 84.0049 143.255 84.6981 143.255 86.2236V86.2464C143.255 87.9667 141.896 88.9913 139.959 88.9913C138.548 88.9913 137.217 88.5056 136.109 87.5214V87.5214ZM145.014 79.3576H146.73V80.8654H145.014V79.3576V79.3576ZM145.08 81.9305H146.676V88.8597H145.08V81.9305V81.9305Z"
    fill="#AD1847"
  />
  <path
    fill-rule="evenodd"
    clip-rule="evenodd"
    d="M148.684 90.1601L149.276 88.966C150.016 89.4239 150.806 89.6997 151.757 89.6997C153.18 89.6997 153.958 88.966 153.958 87.572V87.0357C153.378 87.782 152.651 88.3082 151.505 88.3082C149.871 88.3082 148.341 87.1015 148.341 85.0649V85.0396C148.341 82.993 149.883 81.7863 151.505 81.7863C152.679 81.7863 153.403 82.3226 153.945 82.9652V81.9305H155.538V87.4405C155.538 88.6093 155.236 89.4745 154.656 90.0538C154.024 90.6838 153.048 90.9873 151.795 90.9873C150.648 90.9873 149.579 90.6964 148.684 90.1601V90.1601ZM153.97 85.0649V85.0396C153.97 83.8987 153.035 83.122 151.927 83.122C150.819 83.122 149.95 83.886 149.95 85.027V85.0523C149.95 86.1958 150.831 86.9699 151.927 86.9699C153.035 86.9699 153.97 86.1831 153.97 85.0649Z"
    fill="#AD1847"
  />
  <path
    d="M157.589 81.9305H159.183V83.0056C159.633 82.3504 160.278 81.7863 161.358 81.7863C162.929 81.7863 163.839 82.8361 163.839 84.4502V88.8597H162.243V84.9207C162.243 83.8456 161.702 83.2283 160.754 83.2283C159.828 83.2283 159.183 83.8734 159.183 84.9486V88.8597H157.589V81.9305Z"
    fill="#AD1847"
  />
</svg>
