<svg width="192" height="96" viewBox="0 0 192 96" fill="none" xmlns="http://www.w3.org/2000/svg">
  <rect width="192" height="96" fill="white" />
  <path
    d="M75.8268 36.7376H66.9727C66.6796 36.7374 66.3961 36.8419 66.1732 37.0323C65.9503 37.2226 65.8027 37.4863 65.7571 37.7759L62.1761 60.4801C62.1596 60.5854 62.1662 60.6931 62.1953 60.7957C62.2245 60.8983 62.2755 60.9933 62.3449 61.0743C62.4143 61.1552 62.5004 61.2202 62.5973 61.2647C62.6942 61.3092 62.7996 61.3321 62.9063 61.332H67.1333C67.4266 61.3321 67.7103 61.2274 67.9332 61.0368C68.1561 60.8461 68.3036 60.5821 68.349 60.2924L69.3148 54.1687C69.3601 53.8791 69.5074 53.6153 69.73 53.4247C69.9527 53.2341 70.2361 53.1293 70.5291 53.1291H73.332C79.1644 53.1291 82.5305 50.3068 83.4096 44.7139C83.8057 42.267 83.4264 40.3445 82.2806 38.998C81.0222 37.5195 78.7903 36.7376 75.8268 36.7376V36.7376ZM76.8483 45.0298C76.3641 48.2068 73.9366 48.2068 71.5895 48.2068H70.2534L71.1907 42.2735C71.2181 42.0999 71.3066 41.9418 71.4403 41.8276C71.5739 41.7135 71.7438 41.6508 71.9196 41.6507H72.532C74.1308 41.6507 75.6391 41.6507 76.4185 42.5622C76.8833 43.1059 77.0257 43.9138 76.8483 45.0298V45.0298ZM102.293 44.9275H98.0533C97.8776 44.9275 97.7076 44.9902 97.574 45.1044C97.4404 45.2185 97.3519 45.3766 97.3244 45.5502L97.1367 46.7361L96.8402 46.3063C95.9223 44.9741 93.8755 44.5287 91.8325 44.5287C87.1472 44.5287 83.1455 48.0774 82.3661 53.0553C81.9609 55.5384 82.537 57.9128 83.9456 59.5687C85.2376 61.0912 87.0864 61.7255 89.286 61.7255C93.0612 61.7255 95.1546 59.2981 95.1546 59.2981L94.9656 60.4762C94.9487 60.5815 94.9549 60.6893 94.9837 60.792C95.0125 60.8947 95.0633 60.9899 95.1324 61.0711C95.2016 61.1524 95.2875 61.2176 95.3843 61.2624C95.4811 61.3072 95.5865 61.3305 95.6932 61.3307H99.5124C99.8057 61.3308 100.089 61.2261 100.312 61.0355C100.535 60.8449 100.683 60.5808 100.728 60.2911L103.02 45.7794C103.036 45.6743 103.03 45.5668 103.002 45.4643C102.973 45.3618 102.922 45.2668 102.853 45.1858C102.784 45.1048 102.698 45.0397 102.602 44.9951C102.505 44.9505 102.4 44.9275 102.293 44.9275V44.9275ZM96.3832 53.1796C95.9741 55.6019 94.0516 57.2279 91.5995 57.2279C90.3683 57.2279 89.3844 56.8331 88.7526 56.0848C88.126 55.3416 87.8878 54.2839 88.0871 53.1058C88.469 50.7042 90.424 49.0251 92.8385 49.0251C94.0425 49.0251 95.0213 49.4251 95.666 50.1799C96.312 50.9424 96.5684 52.0066 96.3832 53.1796V53.1796ZM124.874 44.9275H120.614C120.413 44.9278 120.215 44.9772 120.037 45.0712C119.86 45.1653 119.708 45.3013 119.595 45.4674L113.719 54.1234L111.228 45.8053C111.151 45.5516 110.995 45.3292 110.782 45.1711C110.57 45.0131 110.312 44.9276 110.047 44.9275H105.86C105.742 44.9272 105.627 44.9549 105.522 45.0085C105.417 45.062 105.327 45.1398 105.258 45.2352C105.19 45.3307 105.145 45.4412 105.128 45.5575C105.111 45.6737 105.122 45.7924 105.16 45.9037L109.853 59.6761L105.441 65.9046C105.362 66.0151 105.316 66.145 105.306 66.2801C105.297 66.4152 105.324 66.5503 105.387 66.6706C105.449 66.7909 105.543 66.8918 105.659 66.9623C105.774 67.0327 105.907 67.0699 106.043 67.0698H110.298C110.497 67.0701 110.693 67.0222 110.869 66.9302C111.045 66.8382 111.196 66.7049 111.309 66.5416L125.48 46.0862C125.557 45.9755 125.602 45.846 125.611 45.7115C125.619 45.5771 125.591 45.4429 125.528 45.3235C125.466 45.2041 125.372 45.1041 125.257 45.0343C125.141 44.9645 125.009 44.9276 124.874 44.9275V44.9275Z"
    fill="#253B80"
  />
  <path
    d="M138.981 36.7376H130.126C129.833 36.7377 129.55 36.8423 129.327 37.0327C129.104 37.223 128.957 37.4866 128.911 37.7759L125.33 60.4801C125.314 60.5853 125.32 60.6928 125.349 60.7953C125.378 60.8978 125.429 60.9928 125.498 61.0737C125.567 61.1547 125.653 61.2197 125.75 61.2643C125.846 61.3089 125.951 61.332 126.058 61.332H130.602C130.807 61.3317 131.005 61.2582 131.161 61.1248C131.317 60.9915 131.42 60.8069 131.451 60.6044L132.468 54.1687C132.513 53.8791 132.66 53.6153 132.883 53.4247C133.106 53.2341 133.389 53.1293 133.682 53.1291H136.484C142.317 53.1291 145.682 50.3068 146.563 44.7139C146.96 42.267 146.578 40.3444 145.432 38.998C144.175 37.5195 141.945 36.7376 138.981 36.7376V36.7376ZM140.003 45.0298C139.52 48.2068 137.092 48.2068 134.744 48.2068H133.409L134.348 42.2735C134.374 42.0999 134.463 41.9417 134.596 41.8274C134.73 41.7132 134.899 41.6505 135.075 41.6507H135.688C137.285 41.6507 138.795 41.6507 139.574 42.5622C140.039 43.1059 140.18 43.9138 140.003 45.0298V45.0298ZM165.446 44.9275H161.209C161.033 44.927 160.863 44.9896 160.73 45.1039C160.596 45.2181 160.508 45.3765 160.481 45.5502L160.294 46.7361L159.996 46.3063C159.078 44.9741 157.032 44.5287 154.989 44.5287C150.304 44.5287 146.304 48.0774 145.524 53.0553C145.12 55.5384 145.694 57.9128 147.102 59.5687C148.397 61.0912 150.243 61.7255 152.443 61.7255C156.218 61.7255 158.311 59.2981 158.311 59.2981L158.122 60.4762C158.106 60.5817 158.112 60.6897 158.141 60.7926C158.17 60.8955 158.221 60.9909 158.29 61.0721C158.36 61.1534 158.446 61.2186 158.543 61.2632C158.64 61.3079 158.746 61.3309 158.853 61.3307H162.671C162.964 61.3305 163.247 61.2257 163.47 61.0351C163.692 60.8445 163.84 60.5806 163.885 60.2911L166.178 45.7794C166.194 45.6739 166.187 45.5662 166.158 45.4637C166.129 45.3611 166.077 45.2661 166.008 45.1852C165.938 45.1042 165.852 45.0393 165.755 44.9948C165.658 44.9503 165.553 44.9274 165.446 44.9275V44.9275ZM159.536 53.1796C159.13 55.6019 157.205 57.2279 154.752 57.2279C153.524 57.2279 152.537 56.8331 151.906 56.0848C151.279 55.3416 151.043 54.2839 151.24 53.1058C151.625 50.7042 153.577 49.0251 155.991 49.0251C157.195 49.0251 158.174 49.4251 158.819 50.1799C159.468 50.9424 159.724 52.0066 159.536 53.1796V53.1796ZM170.445 37.3603L166.811 60.4801C166.794 60.5853 166.801 60.6928 166.829 60.7953C166.858 60.8978 166.909 60.9928 166.978 61.0737C167.047 61.1547 167.133 61.2197 167.23 61.2643C167.327 61.3089 167.432 61.332 167.538 61.332H171.192C171.799 61.332 172.314 60.8918 172.408 60.2924L175.991 37.5894C176.008 37.4842 176.001 37.3766 175.973 37.2741C175.944 37.1715 175.893 37.0764 175.824 36.9954C175.755 36.9143 175.669 36.8492 175.572 36.8044C175.475 36.7597 175.37 36.7365 175.264 36.7363H171.172C170.997 36.7369 170.827 36.8 170.694 36.9144C170.561 37.0287 170.472 37.1868 170.445 37.3603V37.3603Z"
    fill="#179BD7"
  />
  <path
    d="M25.4068 65.7441L26.0839 61.4433L24.5757 61.4083H17.3735L22.3786 29.6727C22.3935 29.5757 22.4428 29.4873 22.5174 29.4236C22.592 29.36 22.6871 29.3252 22.7852 29.3257H34.9289C38.9605 29.3257 41.7427 30.1646 43.1953 31.8205C43.8762 32.5973 44.3099 33.409 44.5197 34.3023C44.7398 35.2397 44.7436 36.3595 44.5287 37.7254L44.5132 37.8251V38.7002L45.1942 39.0861C45.7141 39.3494 46.1814 39.7057 46.573 40.1373C47.1556 40.8015 47.5323 41.6456 47.6916 42.6463C47.856 43.6756 47.8016 44.9003 47.5323 46.2869C47.2216 47.8819 46.7193 49.271 46.0409 50.4077C45.4423 51.426 44.6375 52.308 43.6782 52.997C42.7771 53.6366 41.7064 54.1221 40.4959 54.4328C39.323 54.7383 37.9856 54.8924 36.5188 54.8924H35.5737C34.8979 54.8924 34.2415 55.1358 33.7262 55.5721C33.2117 56.013 32.8703 56.6223 32.763 57.2914L32.6918 57.6785L31.4955 65.2586L31.4412 65.537C31.4269 65.625 31.4023 65.669 31.3661 65.6988C31.331 65.7275 31.2871 65.7435 31.2418 65.7441H25.4068Z"
    fill="#253B80"
  />
  <path
    d="M45.839 37.9261C45.8027 38.1578 45.7613 38.3947 45.7147 38.6381C44.1132 46.8604 38.6343 49.7009 31.6367 49.7009H28.0739C27.2181 49.7009 26.497 50.3223 26.3636 51.1664L24.5395 62.7354L24.0229 66.0147C24.0023 66.1448 24.0102 66.2778 24.0459 66.4045C24.0817 66.5313 24.1445 66.6488 24.23 66.7489C24.3155 66.8491 24.4217 66.9295 24.5413 66.9847C24.6609 67.0399 24.791 67.0685 24.9227 67.0685H31.2419C31.9902 67.0685 32.6258 66.5248 32.7436 65.7868L32.8058 65.4658L33.9956 57.9154L34.072 57.5011C34.1885 56.7606 34.8254 56.2168 35.5737 56.2168H36.5188C42.6412 56.2168 47.434 53.7311 48.8348 46.538C49.42 43.5332 49.117 41.0241 47.5686 39.2595C47.0779 38.7137 46.4918 38.2618 45.839 37.9261V37.9261Z"
    fill="#179BD7"
  />
  <path
    d="M44.1637 37.258C43.6524 37.1101 43.1322 36.9946 42.6063 36.9123C41.5671 36.7526 40.5168 36.676 39.4655 36.6832H29.9472C29.585 36.6829 29.2346 36.8122 28.9594 37.0478C28.6842 37.2833 28.5024 37.6095 28.4467 37.9675L26.4219 50.7922L26.3636 51.1664C26.4267 50.7581 26.6338 50.3859 26.9475 50.1171C27.2612 49.8483 27.6608 49.7006 28.0739 49.7009H31.6367C38.6343 49.7009 44.1132 46.8591 45.7147 38.6381C45.7626 38.3947 45.8028 38.1578 45.839 37.926C45.4164 37.7044 44.976 37.5187 44.5224 37.3706C44.4034 37.3312 44.2839 37.2936 44.1637 37.258V37.258Z"
    fill="#222D65"
  />
  <path
    d="M28.4467 37.9675C28.5019 37.6094 28.6836 37.2831 28.959 37.0476C29.2343 36.8122 29.585 36.6834 29.9472 36.6845H39.4655C40.5931 36.6845 41.6457 36.7583 42.6063 36.9136C43.2563 37.0158 43.8974 37.1686 44.5236 37.3706C44.9962 37.5273 45.4351 37.7124 45.8403 37.9261C46.3167 34.8875 45.8364 32.8187 44.1935 30.9453C42.3823 28.8829 39.1133 28 34.9303 28H22.7865C21.9321 28 21.2032 28.6214 21.0711 29.4668L16.013 61.5287C15.9894 61.6776 15.9984 61.8298 16.0392 61.9749C16.0801 62.1199 16.1519 62.2544 16.2497 62.3691C16.3475 62.4837 16.469 62.5758 16.6058 62.6391C16.7426 62.7023 16.8915 62.7352 17.0422 62.7354H24.5395L26.4219 50.7922L28.4467 37.9675V37.9675Z"
    fill="#253B80"
  />
</svg>
