<svg width="192" height="96" viewBox="0 0 192 96" fill="none" xmlns="http://www.w3.org/2000/svg">
<rect width="192" height="96" fill="white" />
<path
    d="M51.7583 42.1689H45.9912V37.7692C45.9912 34.8483 44.8309 32.0469 42.7654 29.9815C40.7 27.916 37.8987 26.7557 34.9777 26.7557C32.0567 26.7557 29.2554 27.916 27.1899 29.9815C25.1245 32.0469 23.9641 34.8483 23.9641 37.7692V42.1689H18.2113V37.7692C18.2113 33.3218 19.9781 29.0564 23.1229 25.9116C26.2677 22.7668 30.5331 21 34.9805 21C39.428 21 43.6933 22.7668 46.8382 25.9116C49.983 29.0564 51.7498 33.3218 51.7498 37.7692L51.7583 42.1689Z"
    fill="#D5D5D9"
  />
<path
    d="M16.9469 42.0688H53.0142C53.1395 42.0688 53.2636 42.0937 53.3792 42.142C53.4948 42.1903 53.5997 42.261 53.6878 42.3502C53.7759 42.4393 53.8454 42.5451 53.8923 42.6613C53.9392 42.7775 53.9626 42.9018 53.9611 43.0271V65.3861C53.9611 66.5856 53.7248 67.7734 53.2658 68.8816C52.8067 69.9898 52.1339 70.9967 51.2857 71.8449C50.4376 72.6931 49.4306 73.3659 48.3224 73.8249C47.2142 74.284 46.0265 74.5202 44.827 74.5202H25.1341C23.9339 74.5202 22.7454 74.2837 21.6367 73.8241C20.5279 73.3645 19.5206 72.691 18.6723 71.8419C17.824 70.9928 17.1514 69.9848 16.6928 68.8756C16.2343 67.7665 15.9989 66.5778 16 65.3775V43.0271C16 42.776 16.0998 42.5352 16.2773 42.3576C16.4549 42.18 16.6958 42.0803 16.9469 42.0803V42.0688Z"
    fill="#8EBD00"
  />
<g style="mix-blend-mode:multiply" opacity="0.1">
<path d="M34.9805 42.0688H53.961V74.5116H34.9805V42.0688Z" fill="#134200" />
</g>
<path
    d="M33.2927 64.7396L24.3789 56.3836L28.1807 52.8221L33.2927 57.6137L43.5654 47.9818L47.3644 51.5462L33.2927 64.7396Z"
    fill="white"
  />
<path
    d="M69.403 42.6696C68.7177 42.4137 68.0539 42.1038 67.4177 41.7427C66.8571 41.4249 66.3518 41.0182 65.9216 40.5384C65.4951 40.0475 65.1686 39.478 64.9604 38.862C64.7214 38.1047 64.6102 37.3129 64.6314 36.5191C64.6114 35.5122 64.8065 34.5125 65.2036 33.5869C65.5676 32.7611 66.119 32.0314 66.8141 31.4557C67.5488 30.859 68.3962 30.4163 69.3058 30.1541C70.374 29.8476 71.4814 29.6992 72.5927 29.7136C73.6362 29.7043 74.6779 29.8001 75.7022 29.9997C76.7346 30.2185 77.7514 30.5051 78.746 30.8579C78.6084 32.1468 78.2565 33.4038 77.7047 34.5767L76.712 34.1877C76.3621 34.0522 76.0026 33.9432 75.6364 33.8616C75.2124 33.7681 74.7836 33.6974 74.352 33.6499C73.8113 33.5928 73.2679 33.5661 72.7242 33.5698C72.3474 33.5699 71.9713 33.6025 71.6 33.667C71.2403 33.7252 70.8936 33.8463 70.5759 34.0246C70.2633 34.209 70.0048 34.4724 69.8264 34.7884C69.6178 35.1956 69.5192 35.6502 69.5403 36.1072C69.5266 36.4837 69.6052 36.8579 69.7692 37.1971C69.9186 37.4886 70.1294 37.7443 70.3871 37.9466C70.6547 38.1517 70.9481 38.321 71.2596 38.4501C71.5857 38.5902 71.909 38.7361 72.2351 38.8563L74.1889 39.6058C75.0128 39.9319 75.7613 40.2675 76.4345 40.6127C77.0783 40.937 77.6594 41.3728 78.1509 41.9C78.6282 42.4422 78.992 43.0744 79.2208 43.7595C79.5083 44.63 79.6448 45.5434 79.6242 46.4599C79.6368 47.4999 79.4312 48.531 79.0206 49.4865C78.6259 50.3892 78.0311 51.1904 77.2813 51.8294C76.4521 52.5187 75.4957 53.0386 74.4664 53.3599C73.2167 53.7427 71.9141 53.9243 70.6074 53.8977C69.8922 53.8977 69.2514 53.8777 68.6878 53.8319C68.1473 53.793 67.6095 53.7223 67.0773 53.6202C66.5666 53.5233 66.0614 53.3991 65.564 53.2483C65.0643 53.0957 64.5437 52.9107 64.0021 52.6933C64.0733 52.0295 64.1928 51.3717 64.3597 50.7252C64.5332 50.0405 64.7392 49.3521 64.9776 48.6598C65.8128 49.0032 66.6736 49.2806 67.5522 49.4894C68.3969 49.681 69.2606 49.777 70.1268 49.7755C71.4942 49.7755 72.5679 49.5209 73.3479 49.0117C74.1279 48.5025 74.5188 47.7272 74.5208 46.6859C74.5326 46.2344 74.4344 45.7867 74.2347 45.3815C74.0564 45.0445 73.8133 44.7461 73.5195 44.5032C73.2165 44.2602 72.8828 44.0582 72.5269 43.9025C72.1569 43.7404 71.7755 43.5831 71.3826 43.4305L69.403 42.6696ZM83.0398 30.1084H96.319C96.4486 30.7622 96.5137 31.4271 96.5136 32.0937C96.5158 32.7811 96.4506 33.4672 96.319 34.1419H87.8028V39.2196H94.574C94.7005 39.8854 94.7656 40.5615 94.7686 41.2392C94.7686 41.9266 94.7035 42.6124 94.574 43.2875H87.8028V49.4722H96.5593C96.6889 50.126 96.754 50.791 96.7539 51.4575C96.7559 52.1459 96.6907 52.8329 96.5593 53.5086H83.0398V30.1084ZM115.78 49.0832C116.062 49.6878 116.296 50.3133 116.481 50.9541C116.664 51.5886 116.8 52.236 116.887 52.8907C115.9 53.2642 114.877 53.5364 113.835 53.7032C112.87 53.8368 111.897 53.9018 110.923 53.8977C109.258 53.9351 107.602 53.6303 106.06 53.0023C104.719 52.4422 103.523 51.5854 102.561 50.4963C101.594 49.3835 100.868 48.0821 100.43 46.6745C99.9391 45.1163 99.6968 43.4907 99.7118 41.8571C99.705 40.2134 99.9658 38.5796 100.484 37.0197C100.944 35.6039 101.68 34.2933 102.65 33.1636C103.607 32.0688 104.796 31.2018 106.131 30.6261C107.617 29.9956 109.22 29.6847 110.834 29.7136C111.798 29.7088 112.76 29.7738 113.715 29.9081C114.692 30.0685 115.648 30.3431 116.561 30.7263C116.517 31.375 116.387 32.0149 116.172 32.6286C115.955 33.2503 115.715 33.8749 115.454 34.5024C114.796 34.2688 114.122 34.0833 113.437 33.9474C112.749 33.8303 112.052 33.7757 111.355 33.7843C109.272 33.7843 107.672 34.4623 106.554 35.8183C105.437 37.1742 104.878 39.1872 104.878 41.8571C104.878 47.1494 107.124 49.7964 111.615 49.7983C112.323 49.8058 113.03 49.7513 113.729 49.6353C114.426 49.5038 115.112 49.3192 115.78 49.0832V49.0832ZM120.306 30.1084C120.704 30.0444 121.105 30.0005 121.507 29.9768C121.899 29.9568 122.3 29.9453 122.712 29.9453C123.123 29.9453 123.461 29.9453 123.856 29.9768C124.251 30.0082 124.645 30.0426 125.06 30.1084V42.2462C125.052 43.3817 125.1 44.5169 125.206 45.6475C125.268 46.456 125.466 47.2481 125.792 47.9904C126.045 48.5681 126.479 49.048 127.028 49.3578C127.669 49.6766 128.379 49.8282 129.094 49.7983C129.804 49.8297 130.51 49.678 131.145 49.3578C131.687 49.0429 132.114 48.5641 132.366 47.9904C132.686 47.2468 132.88 46.4549 132.938 45.6475C133.047 44.5171 133.096 43.3818 133.087 42.2462V30.1084C133.519 30.0426 133.945 29.9997 134.323 29.9768C134.701 29.9539 135.093 29.9453 135.467 29.9453C135.842 29.9453 136.254 29.9453 136.654 29.9768C137.064 29.9999 137.471 30.0438 137.876 30.1084V43.2674C137.889 44.7223 137.759 46.1749 137.487 47.6042C137.271 48.8149 136.793 49.9639 136.088 50.9712C135.396 51.9202 134.464 52.6677 133.388 53.1367C132.26 53.6459 130.83 53.9005 129.097 53.9005C127.363 53.9005 125.933 53.6459 124.806 53.1367C123.728 52.6685 122.794 51.9209 122.102 50.9712C121.397 49.9634 120.919 48.8147 120.701 47.6042C120.43 46.1719 120.299 44.7165 120.311 43.2589L120.306 30.1084ZM142.499 30.1084C143.452 29.9997 144.348 29.9043 145.185 29.8223C146.02 29.7479 146.947 29.7079 147.968 29.7079C149.153 29.7071 150.334 29.8163 151.498 30.034C152.606 30.2274 153.672 30.6148 154.645 31.1783C155.574 31.7271 156.352 32.4989 156.908 33.4239C157.48 34.3679 157.766 35.5665 157.766 37.0197C157.779 37.795 157.669 38.5674 157.44 39.3083C157.246 39.9246 156.966 40.5109 156.61 41.0504C156.299 41.5199 155.933 41.951 155.521 42.3349C155.178 42.6536 154.807 42.9408 154.413 43.1931L153.861 43.5506L159.557 53.4428C159.122 53.4857 158.667 53.5315 158.19 53.5744C157.712 53.6173 157.223 53.6402 156.725 53.6402C155.907 53.6408 155.091 53.5748 154.285 53.4428L148.163 42.6038L148.944 42.2147C149.247 42.0631 149.616 41.8686 150.051 41.6426C150.503 41.3893 150.925 41.0861 151.31 40.7386C151.723 40.3667 152.07 39.9264 152.334 39.437C152.623 38.8784 152.763 38.2547 152.74 37.6262C152.74 36.2588 152.349 35.2547 151.567 34.6139C150.703 33.9472 149.631 33.6077 148.541 33.6556C148.105 33.6521 147.669 33.6846 147.239 33.7529V53.5086C146.85 53.5515 146.458 53.5887 146.069 53.6202C145.68 53.6517 145.297 53.6717 144.925 53.6717C144.553 53.6717 144.164 53.6717 143.752 53.6374C143.34 53.603 142.916 53.5716 142.482 53.5086L142.499 30.1084ZM162.157 30.1084H175.437C175.566 30.7622 175.631 31.4271 175.631 32.0937C175.633 32.7811 175.568 33.4672 175.437 34.1419H166.909V39.2196H173.677C173.806 39.8852 173.872 40.5613 173.875 41.2392C173.875 41.9267 173.809 42.6127 173.677 43.2875H166.909V49.4722H175.663C175.793 50.1258 175.859 50.7909 175.857 51.4575C175.861 52.146 175.795 52.8331 175.663 53.5086H162.157V30.1084Z"
    fill="#262626"
  />
<path
    d="M66.2934 65.5349C65.9805 65.4177 65.6773 65.2762 65.3866 65.1115C65.1298 64.9665 64.8987 64.7799 64.7029 64.5594C64.5076 64.3349 64.358 64.0745 64.2624 63.7927C64.1522 63.4471 64.1 63.0855 64.1079 62.7228C64.0984 62.2622 64.1872 61.8048 64.3682 61.3812C64.5339 61.004 64.7857 60.6708 65.1034 60.4086C65.4409 60.1345 65.83 59.9312 66.2477 59.8107C66.7361 59.6724 67.2419 59.6049 67.7495 59.6104C68.2296 59.6075 68.7087 59.6525 69.1799 59.7449C69.6524 59.8421 70.1178 59.9712 70.573 60.1311C70.5093 60.7192 70.3479 61.2925 70.0953 61.8274L69.6404 61.6501C69.4812 61.5886 69.3177 61.5389 69.1513 61.5013C68.9567 61.4585 68.76 61.426 68.562 61.4041C68.3148 61.3787 68.0666 61.3663 67.8182 61.3669C67.6465 61.3666 67.4751 61.3819 67.3061 61.4127C67.1411 61.4378 66.982 61.4931 66.837 61.5757C66.6936 61.6595 66.5751 61.78 66.4937 61.9247C66.397 62.1107 66.3506 62.3188 66.3592 62.5283C66.3519 62.6891 66.3831 62.8494 66.4503 62.9957C66.5175 63.142 66.6187 63.2701 66.7454 63.3693C66.8687 63.4661 67.0044 63.5459 67.1488 63.6068C67.2975 63.6726 67.4349 63.7327 67.595 63.7927L68.4876 64.136C68.8652 64.2848 69.2085 64.4392 69.5146 64.5966C69.8083 64.7443 70.0729 64.944 70.2955 65.1859C70.519 65.435 70.6893 65.727 70.7961 66.0441C70.9235 66.4413 70.9834 66.8571 70.9735 67.2742C70.9759 67.7497 70.8785 68.2204 70.6874 68.6559C70.5071 69.0699 70.234 69.4369 69.8893 69.7286C69.5105 70.0446 69.073 70.2828 68.602 70.4295C68.0318 70.6066 67.4369 70.6916 66.8398 70.6812C66.5109 70.6812 66.2191 70.6812 65.9616 70.6526C65.7141 70.6329 65.4677 70.6005 65.2236 70.5553C64.9918 70.5096 64.7601 70.4524 64.5313 70.3837C64.3024 70.315 64.065 70.2292 63.819 70.1291C63.8506 69.826 63.9051 69.5257 63.982 69.2309C64.0621 68.9162 64.1565 68.6015 64.2681 68.284C64.6489 68.4428 65.0422 68.57 65.4438 68.6644C65.8352 68.7453 66.2344 68.7818 66.6339 68.7731C67.1484 68.8016 67.6601 68.6804 68.1071 68.4241C68.2823 68.3098 68.4241 68.1511 68.5181 67.9642C68.6121 67.7773 68.6548 67.5688 68.6421 67.36C68.6488 67.1544 68.6056 66.9502 68.5162 66.765C68.4342 66.6109 68.3235 66.474 68.1901 66.3616C68.052 66.2463 67.899 66.15 67.7352 66.0755C67.5664 66.0012 67.3919 65.9296 67.2146 65.861L66.2934 65.5349ZM74.1088 65.5349C73.7999 65.417 73.5005 65.2755 73.2134 65.1115C72.9571 64.9657 72.7262 64.7793 72.5297 64.5594C72.3344 64.3354 72.1856 64.0748 72.092 63.7927C71.9794 63.4476 71.9262 63.0858 71.9347 62.7228C71.9252 62.2622 72.0139 61.8048 72.195 61.3812C72.3627 61.0044 72.6153 60.6715 72.9331 60.4086C73.27 60.1337 73.6593 59.9303 74.0773 59.8107C74.5667 59.6722 75.0735 59.6047 75.582 59.6104C76.0621 59.6076 76.5412 59.6527 77.0124 59.7449C77.484 59.8422 77.9484 59.9712 78.4027 60.1311C78.34 60.719 78.1795 61.2924 77.9278 61.8274L77.4729 61.6501C77.3128 61.5886 77.1483 61.5389 76.9809 61.5013C76.7873 61.4585 76.5915 61.426 76.3945 61.4041C76.1464 61.3787 75.8972 61.3663 75.6478 61.3669C75.4761 61.3667 75.3047 61.3821 75.1358 61.4127C74.9708 61.4382 74.8119 61.4935 74.6666 61.5757C74.5239 61.6604 74.4056 61.7806 74.3233 61.9247C74.2276 62.111 74.1823 62.3191 74.1917 62.5283C74.1863 62.7 74.2216 62.8706 74.2947 63.0261C74.3637 63.1602 74.4613 63.2774 74.5808 63.3693C74.7026 63.4667 74.8374 63.5466 74.9813 63.6068C75.13 63.6726 75.2674 63.7327 75.4276 63.7927L76.3229 64.136C76.6977 64.2848 77.041 64.4392 77.3499 64.5966C77.6427 64.7458 77.9071 64.9452 78.1309 65.1859C78.3524 65.4359 78.5216 65.7277 78.6286 66.0441C78.7584 66.4408 78.8193 66.8569 78.8089 67.2742C78.8113 67.7497 78.7138 68.2204 78.5228 68.6559C78.3425 69.0691 78.0706 69.436 77.7275 69.7286C77.3479 70.0435 76.9107 70.2815 76.4402 70.4295C75.869 70.6067 75.2732 70.6916 74.6752 70.6812C74.3491 70.6812 74.0573 70.6812 73.797 70.6526C73.5504 70.6331 73.305 70.6007 73.0618 70.5553C72.8272 70.5096 72.5984 70.4524 72.3695 70.3837C72.1407 70.315 71.9032 70.2292 71.6543 70.1291C71.6887 69.8264 71.7432 69.5263 71.8174 69.2309C71.8975 68.9162 71.9919 68.6015 72.1035 68.284C72.4846 68.442 72.8778 68.5692 73.2792 68.6644C73.6653 68.7497 74.0596 68.7919 74.4549 68.7903C74.9694 68.8191 75.4813 68.6979 75.9282 68.4413C76.1037 68.3271 76.2459 68.1685 76.3404 67.9816C76.4348 67.7947 76.4782 67.5862 76.466 67.3771C76.4732 67.1712 76.429 66.9667 76.3372 66.7821C76.2571 66.6269 76.1461 66.4896 76.0111 66.3788C75.8731 66.2634 75.7201 66.1672 75.5563 66.0927C75.3875 66.0183 75.2159 65.9468 75.0356 65.8782L74.1088 65.5349ZM80.345 59.7907C80.6938 59.7316 81.0469 59.701 81.4006 59.6991C81.7648 59.7009 82.1283 59.7315 82.4877 59.7907V68.6158H86.2066C86.237 68.7755 86.257 68.937 86.2666 69.0993V70.0061C86.257 70.1693 86.237 70.3318 86.2066 70.4924H80.345V59.7907ZM90.9495 59.7907H97.0227C97.0824 60.0892 97.1121 60.393 97.1114 60.6975C97.1132 61.0124 97.0835 61.3268 97.0227 61.6358H93.1294V63.9558H96.2246C96.2828 64.2604 96.3125 64.5697 96.3133 64.8798C96.314 65.1947 96.2843 65.5089 96.2246 65.8181H93.1294V68.6444H97.1343C97.1951 68.9438 97.2258 69.2486 97.2258 69.5541C97.2264 69.8691 97.1957 70.1834 97.1343 70.4924H90.9495V59.7907ZM98.8593 59.7907C99.1484 59.7319 99.4425 59.7012 99.7375 59.6991C100.047 59.7008 100.355 59.7314 100.659 59.7907L104.798 66.6076V59.7907C105.137 59.7316 105.481 59.701 105.825 59.6991C106.125 59.6989 106.424 59.7296 106.718 59.7907V70.4895C106.435 70.5441 106.147 70.5737 105.859 70.5782C105.555 70.5747 105.252 70.5451 104.953 70.4895L100.785 63.6869V70.4895C100.465 70.5478 100.142 70.5775 99.8176 70.5782C99.498 70.5781 99.1791 70.5485 98.865 70.4895L98.8593 59.7907ZM115.872 68.4671C116 68.7443 116.106 69.0313 116.189 69.3253C116.275 69.6156 116.338 69.9121 116.378 70.2121C115.927 70.3828 115.461 70.5074 114.985 70.584C114.543 70.6456 114.098 70.6752 113.652 70.6726C112.893 70.6879 112.138 70.5487 111.435 70.2636C110.822 70.0077 110.275 69.6165 109.836 69.1193C109.393 68.6106 109.061 68.0154 108.86 67.3714C108.637 66.6587 108.527 65.9155 108.534 65.1687C108.528 64.4181 108.643 63.6714 108.874 62.9574C109.086 62.3109 109.422 61.7122 109.864 61.1952C110.302 60.6941 110.847 60.2972 111.458 60.0338C112.138 59.7459 112.871 59.6036 113.609 59.6162C114.049 59.6147 114.489 59.6443 114.925 59.7048C115.373 59.7781 115.811 59.9039 116.229 60.0796C116.208 60.3725 116.148 60.6612 116.049 60.9378C115.949 61.2238 115.84 61.5099 115.723 61.796C115.422 61.6889 115.113 61.6048 114.799 61.5442C114.484 61.49 114.165 61.4651 113.846 61.4699C112.893 61.4699 112.161 61.7798 111.652 62.3996C111.143 63.0194 110.887 63.9396 110.886 65.1601C110.886 67.5802 111.913 68.7903 113.966 68.7903C114.29 68.7947 114.614 68.7698 114.933 68.7159C115.252 68.6576 115.566 68.5744 115.872 68.4671V68.4671ZM118.103 59.7907C118.541 59.7392 118.961 59.6991 119.33 59.6619C119.699 59.6247 120.137 59.6104 120.603 59.6104C121.145 59.611 121.686 59.6608 122.219 59.7592C122.723 59.8514 123.207 60.0305 123.65 60.2884C124.074 60.5393 124.429 60.8923 124.683 61.3154C124.963 61.8168 125.1 62.3861 125.077 62.9603C125.084 63.3159 125.034 63.6703 124.929 64.0101C124.759 64.5392 124.457 65.0159 124.05 65.3947C123.895 65.5415 123.725 65.6728 123.544 65.7866L123.292 65.9525L125.895 70.4752L125.272 70.5353C125.054 70.5553 124.828 70.5668 124.602 70.5668C124.229 70.5666 123.856 70.536 123.487 70.4752L120.7 65.5063L121.058 65.326C121.198 65.2574 121.367 65.1687 121.564 65.0571C121.77 64.9428 121.962 64.8055 122.137 64.6481C122.325 64.478 122.483 64.2767 122.603 64.053C122.775 63.6945 122.835 63.2921 122.774 62.8989C122.714 62.5056 122.535 62.14 122.262 61.8503C121.867 61.5462 121.376 61.3912 120.878 61.4127C120.679 61.4112 120.48 61.4256 120.283 61.4556V70.4895C120.103 70.5067 119.925 70.5267 119.745 70.541C119.565 70.5553 119.393 70.5639 119.224 70.5639C119.056 70.5639 118.878 70.5639 118.689 70.5468C118.501 70.5296 118.306 70.5182 118.117 70.4895L118.103 59.7907ZM129.237 66.6648L125.901 59.7992C126.315 59.739 126.733 59.7084 127.151 59.7077C127.535 59.7077 127.917 59.7383 128.296 59.7992L130.41 64.6624L132.492 59.7992C132.866 59.7381 133.244 59.7075 133.622 59.7077C134.005 59.7103 134.388 59.7409 134.766 59.7992L131.434 66.6648V70.5067C131.243 70.5353 131.052 70.5553 130.862 70.5668H129.797C129.614 70.5668 129.428 70.5353 129.225 70.5067L129.237 66.6648ZM135.948 59.7449C136.406 59.7048 136.866 59.6734 137.332 59.6476C137.799 59.6219 138.271 59.6104 138.748 59.6104C139.255 59.6124 139.759 59.6622 140.256 59.7592C140.75 59.8516 141.221 60.0412 141.641 60.317C142.067 60.608 142.413 61.0015 142.648 61.4613C142.927 62.0511 143.06 62.6999 143.034 63.3522C143.061 64.0018 142.928 64.6481 142.648 65.2345C142.413 65.6917 142.07 66.0846 141.649 66.3788C141.239 66.6611 140.776 66.8559 140.287 66.9509C139.8 67.0492 139.303 67.099 138.806 67.0997H138.442C138.328 67.0997 138.219 67.0997 138.122 67.0796V70.5124C137.939 70.541 137.755 70.5601 137.57 70.5696C137.392 70.5696 137.218 70.5868 137.049 70.5868C136.88 70.5868 136.717 70.5868 136.529 70.5696C136.34 70.5525 136.148 70.541 135.956 70.5124L135.948 59.7449ZM138.122 65.2517C138.232 65.2713 138.344 65.2818 138.457 65.2831H138.837C139.083 65.2823 139.329 65.2496 139.567 65.1859C139.797 65.1236 140.012 65.0145 140.199 64.8655C140.389 64.7064 140.539 64.5045 140.636 64.2762C140.753 63.9914 140.809 63.6854 140.8 63.3779C140.808 63.0593 140.753 62.7421 140.636 62.4454C140.545 62.2161 140.4 62.0118 140.214 61.8492C140.028 61.6866 139.806 61.5703 139.567 61.5099C139.329 61.4449 139.084 61.4122 138.837 61.4127H138.531L138.122 61.4498V65.2517ZM146.71 61.6358H144.046C143.985 61.3269 143.954 61.0125 143.955 60.6975C143.955 60.3929 143.986 60.0891 144.046 59.7907H151.561C151.621 60.0892 151.651 60.393 151.65 60.6975C151.652 61.0124 151.622 61.3268 151.561 61.6358H148.898V70.5039C148.718 70.521 148.54 70.541 148.36 70.5553C148.18 70.5696 148.008 70.5782 147.84 70.5782C147.671 70.5782 147.491 70.5782 147.296 70.5611C147.102 70.5439 146.907 70.5325 146.71 70.5039V61.6358ZM153.063 59.7907C153.422 59.7308 153.786 59.7002 154.15 59.6991C154.519 59.7006 154.887 59.7312 155.252 59.7907V70.4895C154.527 70.6078 153.788 70.6078 153.063 70.4895V59.7907ZM161.697 70.6698C160.98 70.6874 160.269 70.5447 159.614 70.2521C159.053 69.9904 158.562 69.5981 158.184 69.1078C157.792 68.5876 157.507 67.9957 157.343 67.3657C157.15 66.6504 157.054 65.9124 157.057 65.1716C157.054 64.4251 157.151 63.6816 157.343 62.9603C157.506 62.3236 157.791 61.725 158.184 61.1981C158.559 60.7007 159.05 60.3021 159.614 60.0367C160.274 59.761 160.982 59.619 161.697 59.619C162.412 59.619 163.12 59.761 163.779 60.0367C164.343 60.3021 164.834 60.7007 165.21 61.1981C165.602 61.725 165.888 62.3236 166.051 62.9603C166.243 63.6816 166.339 64.4251 166.337 65.1716C166.34 65.9124 166.244 66.6504 166.051 67.3657C165.887 67.9957 165.601 68.5876 165.21 69.1078C164.831 69.5981 164.341 69.9904 163.779 70.2521C163.125 70.5447 162.413 70.6874 161.697 70.6698V70.6698ZM161.697 68.8532C163.236 68.8532 164.004 67.6232 164.002 65.163C164.002 63.9329 163.812 63.0099 163.43 62.3939C163.254 62.0957 162.999 61.8519 162.693 61.6894C162.387 61.5269 162.042 61.4519 161.697 61.4727C160.141 61.4727 159.361 62.7028 159.36 65.163C159.358 67.6232 160.137 68.8532 161.697 68.8532ZM168.142 59.7907C168.431 59.7319 168.725 59.7012 169.02 59.6991C169.329 59.7008 169.638 59.7314 169.941 59.7907L174.081 66.6076V59.7907C174.42 59.7316 174.763 59.701 175.108 59.6991C175.407 59.6989 175.706 59.7296 176 59.7907V70.4895C175.717 70.5441 175.43 70.5737 175.142 70.5782C174.838 70.5747 174.534 70.5451 174.235 70.4895L170.067 63.6869V70.4895C169.748 70.5478 169.424 70.5775 169.1 70.5782C168.781 70.5781 168.462 70.5485 168.148 70.4895L168.142 59.7907Z"
    fill="#BABABD"
  />
</svg>
