<svg width="192" height="96" viewBox="0 0 192 96" fill="none" xmlns="http://www.w3.org/2000/svg">
  <rect width="192" height="96" fill="white" />
  <path
    d="M120.214 22C108.853 22 98.7008 27.8884 98.7008 38.7678C98.7008 51.2443 116.706 52.1059 116.706 58.3738C116.706 61.0129 113.682 63.3755 108.516 63.3755C101.185 63.3755 95.7061 60.0744 95.7061 60.0744L93.3617 71.0529C93.3617 71.0529 99.6736 73.8413 108.054 73.8413C120.475 73.8413 130.248 67.6636 130.248 56.5984C130.248 43.4147 112.168 42.5785 112.168 36.761C112.168 34.6933 114.65 32.4282 119.801 32.4282C125.613 32.4282 130.355 34.829 130.355 34.829L132.649 24.2257C132.649 24.2257 127.49 22 120.214 22ZM16.2752 22.8003L16 24.4008C16 24.4008 20.7795 25.2754 25.0841 27.0204C30.6266 29.0211 31.0216 30.1859 31.955 33.8036L42.1268 73.016H55.7625L76.7691 22.8003H63.1648L49.6668 56.9421L44.1589 28.0018C43.6537 24.6897 41.095 22.8003 37.9631 22.8003H16.2752V22.8003ZM82.2395 22.8003L71.5674 73.0158H84.5402L95.1749 22.8002H82.2395V22.8003ZM154.593 22.8003C151.465 22.8003 149.808 24.4751 148.591 27.4017L129.585 73.0158H143.19L145.822 65.4133H162.396L163.996 73.0158H176L165.528 22.8003H154.593V22.8003ZM156.363 36.367L160.395 55.2103H149.592L156.363 36.367H156.363Z"
    fill="#1434CB"
  />
</svg>
